<svg xmlns="http://www.w3.org/2000/svg" viewBox="0 0 270 175">
    <g>
        <path d="M30.79,27.89C36.25,24.54,42.9,25.42,49,25.33C109.01,25.34,169.02,25.35,229.02,25.32C239.54,25.02,250.04,34.16,249.71,44.97C249.74,57.22,249.75,69.46,249.68,81.71C242.65,81.56,235.63,81.6,228.6,81.62C228.51,70.02,228.62,58.42,228.55,46.82C219.7,46.49,210.85,46.71,202,46.65C148.54,46.68,95.08,46.59,41.62,46.7C41.37,80.8,41.58,114.9,41.51,149C41.6,158.84,41.31,168.69,41.68,178.52C87.12,178.49,132.56,178.45,177.99,178.54C181.92,186.27,187.69,192.74,193.1,199.44C187.07,199.82,181.03,199.64,175,199.66C130.33,199.67,85.66,199.65,40.99,199.68C29.94,200.41,19.69,190.02,20.29,179.03C20.32,134.34,20.25,89.65,20.33,44.96C20.1,37.78,24.99,31.56,30.79,27.89Z" transform="translate(114.734,87.2138) translate(-134.999,-112.503)"/>
        <path d="M76.43,65.38C82.24,63.31,89.39,63.7,94.36,67.66C101.23,72.91,102.71,83.72,97.76,90.74C94.97,95.08,90.13,97.88,85.04,98.49C75.76,99.36,66.25,91.58,66.3,82.03C65.75,75.08,69.97,68.05,76.43,65.38Z" transform="translate(63.2012,56.0626) translate(-83.4661,-81.3514)"/>
        <path d="M141.03,101.05C144.58,95.93,147.66,90.45,151.98,85.9C158.64,93.8,163.83,102.79,169.81,111.2C172.14,114.73,175.03,118,176.54,122.01C175.56,126.6,173.56,130.91,172.72,135.55C170.67,143.98,171.62,152.71,171.72,161.28C142.15,161.52,112.57,161.31,83,161.39C77.73,161.38,72.45,161.47,67.19,161.18C68.44,158.25,69.96,155.44,71.84,152.88C83.15,136.95,93.64,120.45,105.13,104.65C112.26,110.94,115.78,120.18,122.15,127.17C124.36,125.03,126.45,122.75,128.14,120.18C132.37,113.75,136.72,107.41,141.03,101.05Z" transform="translate(101.6,98.3609) translate(-121.865,-123.65)"/>
        <path d="M223.55,100.01C228.84,98.25,234.48,98.26,239.99,98.27C266.74,97.24,291.28,122.27,289.72,149.01C291.45,176.15,266.13,201.48,239,199.78C215.16,201.4,192.62,182.27,188.62,159.06C188.02,152.05,187.93,144.95,188.78,137.96C192.37,120.27,206.5,105.5,223.55,100.01M233.77,119.77C232.33,121.47,232.61,123.86,232.49,125.92C232.53,131.42,232.65,136.92,232.36,142.41C225.51,143.02,218.59,142.03,211.78,142.98C206.82,144.38,209.07,150.92,209.16,154.68C217.01,154.99,224.88,154.46,232.72,155.17C233.41,163.04,232.96,170.94,233.3,178.83C236.42,179.07,239.67,179.76,242.74,178.85C244.84,178.22,245.15,175.7,245.32,173.85C245.57,167.77,245.16,161.68,245.56,155.6C251.06,155.31,256.57,155.44,262.08,155.49C264.14,155.38,266.51,155.63,268.23,154.23C269.45,150.79,268.74,147.07,268.56,143.52C260.72,142.92,252.85,143.54,245.02,142.94C244.43,135.12,245.03,127.27,244.47,119.45C240.94,119.17,237.14,118.25,233.77,119.77Z" transform="translate(218.715,123.769) translate(-238.98,-149.058)"/>
    </g>
</svg>
